<svg id="Layer_1" data-name="Layer 1" xmlns="http://www.w3.org/2000/svg" viewBox="0 0 366.72 71.49"><defs><style>.cls-1{fill:#4186f5;}.cls-2{fill:#ea4235;}.cls-3{fill:#fabc03;}.cls-4{fill:#33a853;}</style></defs><path class="cls-1" d="M0,0H9.25L25.43,28H26L42.2,0H52V52H42V26.6l.57-8.6H42L28.94,41H23.13L10,18H9.43L10,26.6V52H0Z"/><path class="cls-2" d="M65.9,12.21a6.06,6.06,0,0,1-2.34-.46,6.18,6.18,0,0,1-1.94-1.3,6.28,6.28,0,0,1-1.3-1.91,5.93,5.93,0,0,1-.46-2.37,5.94,5.94,0,0,1,.46-2.38,6.28,6.28,0,0,1,1.3-1.91A6,6,0,0,1,63.56.59,5.89,5.89,0,0,1,65.9.12a6,6,0,0,1,4.32,1.76A5.79,5.79,0,0,1,72,6.17a5.77,5.77,0,0,1-1.8,4.28A5.93,5.93,0,0,1,65.9,12.21ZM61,52V17h9V52Z"/><path class="cls-3" d="M83,25H77V17h6V6h9V17h9v8H92V39.1a10.62,10.62,0,0,0,.24,2.33,3.81,3.81,0,0,0,.93,1.82,3.33,3.33,0,0,0,2.75,1.19,5.5,5.5,0,0,0,1.85-.25,5.88,5.88,0,0,0,1.31-.69l2.54,8.28A14.27,14.27,0,0,1,98.22,53a18.63,18.63,0,0,1-4,.4,11.82,11.82,0,0,1-4.57-.85,9.58,9.58,0,0,1-3.4-2.31Q83,46.9,83,40.8Z"/><path class="cls-1" d="M142.92,34.94a19.75,19.75,0,0,1-2.76,9.34A17.84,17.84,0,0,1,132,51.23a19.63,19.63,0,0,1-7.41,1.9,17.34,17.34,0,0,1-7-1.06,18.16,18.16,0,0,1-6-3.74,19.52,19.52,0,0,1-4.45-6.22,19.93,19.93,0,0,1-1.93-7.45,17.49,17.49,0,0,1,4.72-13,19.59,19.59,0,0,1,6.23-4.46,18.07,18.07,0,0,1,10.52-1.8,16.63,16.63,0,0,1,8.62,4L129,26.28a9.2,9.2,0,0,0-4.41-2,8.54,8.54,0,0,0-4.87.88,8.72,8.72,0,0,0-2.89,2.14A9.1,9.1,0,0,0,115,30.32a9.23,9.23,0,0,0-.46,3.71,11.44,11.44,0,0,0,1.11,4.09,11.66,11.66,0,0,0,2.42,3.48,8.93,8.93,0,0,0,6.63,2.63,8.69,8.69,0,0,0,3.5-.84,9,9,0,0,0,4-3.32,9.25,9.25,0,0,0,1.34-4.88Z"/><path class="cls-4" d="M147,0h9V14.52L155.43,21H156a11.69,11.69,0,0,1,4.33-4.18,12.36,12.36,0,0,1,6.34-1.64q6.81,0,10.07,4.07T180,30.39V52h-9V31.77a8,8,0,0,0-1.76-5.58,6.4,6.4,0,0,0-4.93-1.91,7.39,7.39,0,0,0-3.53.83,7.78,7.78,0,0,0-2.61,2.27,10.49,10.49,0,0,0-1.62,3.34,14.55,14.55,0,0,0-.55,4.07V52h-9Z"/><path class="cls-2" d="M204.72,15.81a19.52,19.52,0,0,1,7.52,1.41,17.46,17.46,0,0,1,9.8,9.83,20,20,0,0,1,1.4,7.56,20.06,20.06,0,0,1-1.4,7.56,17.4,17.4,0,0,1-9.8,9.82,20.76,20.76,0,0,1-15,0,17.4,17.4,0,0,1-9.8-9.82,20.06,20.06,0,0,1-1.4-7.56,20,20,0,0,1,1.4-7.56,17.46,17.46,0,0,1,9.8-9.83A19.48,19.48,0,0,1,204.72,15.81Zm0,28.88a9.16,9.16,0,0,0,3.49-.69,8.68,8.68,0,0,0,3-2,9.33,9.33,0,0,0,2.05-3.17,11.09,11.09,0,0,0,.76-4.24,11.14,11.14,0,0,0-.76-4.25,9.33,9.33,0,0,0-2.05-3.17,9,9,0,0,0-3-2,9.12,9.12,0,0,0-10,2,9.33,9.33,0,0,0-2.05,3.17,11.14,11.14,0,0,0-.76,4.25,11.09,11.09,0,0,0,.76,4.24A9.33,9.33,0,0,0,198.24,42a8.81,8.81,0,0,0,2.95,2A9.07,9.07,0,0,0,204.72,44.69Z"/><path class="cls-3" d="M246.19,15.81a19.52,19.52,0,0,1,7.52,1.41,17.46,17.46,0,0,1,9.8,9.83,20,20,0,0,1,1.4,7.56,20.06,20.06,0,0,1-1.4,7.56,17.4,17.4,0,0,1-9.8,9.82,20.76,20.76,0,0,1-15,0,17.4,17.4,0,0,1-9.8-9.82,20.06,20.06,0,0,1-1.4-7.56,20,20,0,0,1,1.4-7.56,17.46,17.46,0,0,1,9.8-9.83A19.52,19.52,0,0,1,246.19,15.81Zm0,28.88a9.16,9.16,0,0,0,3.49-.69,8.68,8.68,0,0,0,3-2,9.33,9.33,0,0,0,2.05-3.17,11.09,11.09,0,0,0,.76-4.24,11.14,11.14,0,0,0-.76-4.25,9.33,9.33,0,0,0-2.05-3.17,9,9,0,0,0-3-2,9.12,9.12,0,0,0-10,2,9.33,9.33,0,0,0-2.05,3.17,11.14,11.14,0,0,0-.76,4.25,11.09,11.09,0,0,0,.76,4.24A9.33,9.33,0,0,0,239.71,42a8.81,8.81,0,0,0,2.95,2A9.1,9.1,0,0,0,246.19,44.69Z"/><path class="cls-1" d="M287.35,71.49a20.17,20.17,0,0,1-6.66-1,18.68,18.68,0,0,1-5.07-2.64,17.46,17.46,0,0,1-3.6-3.58,14.18,14.18,0,0,1-2.09-3.93l9-3.77a8.89,8.89,0,0,0,3.31,4.56,8.63,8.63,0,0,0,5.11,1.63,8.81,8.81,0,0,0,7.06-3q2.59-3,2.59-8.36V47h-.57a11.23,11.23,0,0,1-4.27,3.57,14,14,0,0,1-6.25,1.3,15.1,15.1,0,0,1-6-1.25,15.76,15.76,0,0,1-5.2-3.61A18.66,18.66,0,0,1,271,41.38,18.44,18.44,0,0,1,269.59,34,18.76,18.76,0,0,1,271,26.65,18.56,18.56,0,0,1,274.67,21a15.76,15.76,0,0,1,5.2-3.61,15.28,15.28,0,0,1,6-1.26,14,14,0,0,1,6.25,1.31A11.23,11.23,0,0,1,296.43,21H297V17h9V51.34a24.46,24.46,0,0,1-1.37,8.42,18.21,18.21,0,0,1-3.81,6.33,16.68,16.68,0,0,1-5.87,4A19.94,19.94,0,0,1,287.35,71.49Zm.24-27.74a9.54,9.54,0,0,0,3.42-.64,8.63,8.63,0,0,0,3-1.87,9.4,9.4,0,0,0,2.09-3,10.31,10.31,0,0,0,.79-4.13,10.63,10.63,0,0,0-.79-4.18A9.32,9.32,0,0,0,294,26.82,8.78,8.78,0,0,0,291,25a9.54,9.54,0,0,0-3.42-.64,9.22,9.22,0,0,0-3.38.64,8.63,8.63,0,0,0-3,1.9,9.73,9.73,0,0,0-2.08,3.08,10.16,10.16,0,0,0-.8,4.14,10.14,10.14,0,0,0,.8,4.13,9.22,9.22,0,0,0,2.08,3,8.69,8.69,0,0,0,3,1.87A9.22,9.22,0,0,0,287.59,43.75Z"/><path class="cls-4" d="M314,52V0h9V52Z"/><path class="cls-2" d="M366.72,35.53a19.83,19.83,0,0,1-3,9.11,18.25,18.25,0,0,1-8,6.69,19.49,19.49,0,0,1-7.35,1.88,17.84,17.84,0,0,1-13.11-4.77,19.56,19.56,0,0,1-4.45-6.23,19.22,19.22,0,0,1-1.82-7.13,18.23,18.23,0,0,1,4.47-13.17,17.64,17.64,0,0,1,6.05-4.49,19.36,19.36,0,0,1,7.44-1.92,15.53,15.53,0,0,1,6.67,1.18,16.57,16.57,0,0,1,5.54,3.89,22.56,22.56,0,0,1,4.15,6.17l.37.78a5.41,5.41,0,0,0,.27.75,4.27,4.27,0,0,0,.27.75L340.08,40.25a9.87,9.87,0,0,0,2.64,2.85,8.76,8.76,0,0,0,3.12,1.41,8.65,8.65,0,0,0,3.28.14,11.27,11.27,0,0,0,3.14-.95,9.14,9.14,0,0,0,4.23-3.6A10.72,10.72,0,0,0,358,35.32Zm-13.55-8.78a6.2,6.2,0,0,0-1.44-1.63,7.47,7.47,0,0,0-2.35-1.29,8.45,8.45,0,0,0-3-.41,9.72,9.72,0,0,0-3.64,1,8.64,8.64,0,0,0-4.1,3.81,9.14,9.14,0,0,0-.89,5.74Z"/></svg>